<?xml version="1.0" encoding="UTF-8" standalone="no"?>
<!-- Generator: Adobe Illustrator 18.0.0, SVG Export Plug-In . SVG Version: 6.00 Build 0)  -->

<svg
   xmlns:dc="http://purl.org/dc/elements/1.1/"
   xmlns:cc="http://creativecommons.org/ns#"
   xmlns:rdf="http://www.w3.org/1999/02/22-rdf-syntax-ns#"
   xmlns:svg="http://www.w3.org/2000/svg"
   xmlns="http://www.w3.org/2000/svg"
   xmlns:sodipodi="http://sodipodi.sourceforge.net/DTD/sodipodi-0.dtd"
   xmlns:inkscape="http://www.inkscape.org/namespaces/inkscape"
   version="1.1"
   id="Слой_1"
   x="0px"
   y="0px"
   viewBox="0 0 237.2 237.2"
   enable-background="new 0 0 237.2 237.2"
   xml:space="preserve"
   inkscape:version="0.91 r13725"
   sodipodi:docname="logo-emblem.svg"><metadata
     id="metadata11"><rdf:RDF><cc:Work
         rdf:about=""><dc:format>image/svg+xml</dc:format><dc:type
           rdf:resource="http://purl.org/dc/dcmitype/StillImage" /></cc:Work></rdf:RDF></metadata><defs
     id="defs9" /><sodipodi:namedview
     pagecolor="#ffffff"
     bordercolor="#666666"
     borderopacity="1"
     objecttolerance="10"
     gridtolerance="10"
     guidetolerance="10"
     inkscape:pageopacity="0"
     inkscape:pageshadow="2"
     inkscape:window-width="1280"
     inkscape:window-height="959"
     id="namedview7"
     showgrid="false"
     inkscape:zoom="0.99494099"
     inkscape:cx="-44.726271"
     inkscape:cy="118.6"
     inkscape:window-x="0"
     inkscape:window-y="0"
     inkscape:window-maximized="1"
     inkscape:current-layer="g3" /><g
     id="g3"><path
       fill="#8C76B5"
       d="M118.6,0C53.1,0,0,53.1,0,118.6c0,65.5,53.1,118.6,118.6,118.6c65.5,0,118.6-53.1,118.6-118.6   C237.2,53.1,184.1,0,118.6,0z M155.2,164.5c-0.2,0.5-0.3,1-0.4,1.4c0,0,0,0,0,0c0,0.1,0,0.1,0,0.2c0,0.1,0,0.1-0.1,0.2   c0,0.2-0.1,0.3-0.1,0.4c0,0,0,0,0,0c0,0,0,0,0,0.1c0,0,0,0,0,0c0,0,0,0,0,0h0c0,0,0,0,0,0l0,0c0,0.1,0,0.1,0,0.2c0,0,0,0.1,0,0.1   c0,0,0,0,0,0c0,0,0,0,0,0c0,0,0,0,0,0c0,0,0,0,0,0c0,0,0,0,0,0c0,0,0,0,0,0c0,0,0,0,0,0c0,0,0,0,0,0.1c0,0,0,0,0,0c0,0,0,0,0,0   c0,0,0,0.1,0,0.1l0,0c0,0,0,0,0,0c-0.1,0.2-0.1,0.3-0.2,0.4c0,0,0,0,0,0c-1,2.3-3.9,3.6-6.3,3.2c0,0,0,0-0.1,0c0,0-0.1,0-0.1,0   c0,0,0,0,0,0c-0.1,0-0.2,0-0.3,0.1c0,0-0.1,0-0.1,0c0,0,0,0-0.1,0c-0.1,0-0.1,0-0.2,0h-0.2c0,0-0.1,0-0.1,0h-0.6c-0.5,0-1,0-1.5,0   c-0.2,0-0.4,0-0.6,0h0c-2.4,0-5.1,0-8.2,0c-0.2,0-0.4,0-0.6,0c-1,0-2.1,0-3.2,0c-0.2,0-0.5,0-0.7,0c-0.3,0-0.6,0-0.9,0   c-4.8,0-10.1,0-15.3,0c-9.1,0-18.3,0-25.7,0l0,0c-0.1,0-0.2,0-0.3,0c-0.1,0-0.2,0-0.3,0c-0.2,0-0.5,0-0.7,0c0,0-0.1,0-0.1,0h-0.1   c0,0-0.1,0-0.1,0c-0.2,0-0.3,0-0.5,0c-0.1,0-0.2,0-0.2-0.1c0,0,0,0,0,0c-0.4-0.1-0.9-0.2-1.2-0.5c-0.3-0.1-0.5-0.3-0.7-0.4   c0,0,0,0,0,0c-0.1,0-0.1,0-0.2-0.1c-0.1-0.1-0.1-0.1-0.2-0.2c0,0,0,0,0,0c0,0,0,0,0,0c0,0,0,0,0,0c-0.1-0.1-0.2-0.2-0.3-0.4   c-0.1-0.1-0.2-0.3-0.3-0.5c-0.3-0.6-0.4-1.1-0.5-1.7c0-0.6,0-1.3,0.1-1.9c0-0.1,0-0.2,0-0.3c0-0.4,0.1-0.7,0.1-1.1c0,0,0-0.1,0-0.1   l0-0.1c0,0,0-0.1,0-0.1c0-0.3,0.1-0.5,0.1-0.8c0,0,0,0,0,0c0-0.1,0-0.2,0-0.3c0-0.1,0-0.2,0-0.3c0-0.1,0-0.2,0-0.3   c0-0.1,0-0.2,0-0.3c0-0.1,0-0.1,0-0.2c0-0.1,0-0.2,0.1-0.4c0.1-0.4,0.1-0.7,0.2-1.1c0-0.3,0.1-0.6,0.1-0.8c0-0.2,0.1-0.3,0.1-0.5   c0,0,0,0,0-0.1c0,0,0,0,0-0.1c0-0.1,0-0.1,0-0.2c0,0,0,0,0,0c0.1-0.2,0.1-0.4,0.2-0.6c0,0,0-0.1,0-0.1c0,0,0,0,0,0   c0.6-2.8,1.3-5.2,1.6-6.3c1-4.5,2-9.1,3.1-13.7c2.8-13.1,6.7-31.1,7.1-32.2C97,104,105,63.9,105,63.9c0.2-1,0.4-1.9,0.7-2.6   c0,0,0,0,0,0c0,0,0,0,0-0.1c0-0.1,0.1-0.2,0.1-0.3c0-0.1,0-0.1,0-0.2c0-0.4,0.1-0.8,0.2-1.2c0.1-0.9,0.3-1.8,0.7-2.6   c0.9-1.8,2.5-2.3,4.2-2.1c0,0,0,0,0.1,0c0.1,0,0.1,0,0.2,0c0.1,0,0.1,0,0.2,0c0.2,0,0.3,0.1,0.4,0.1c0.1,0,0.2,0,0.2,0   s36,6.6,43.9,48C162.5,137.9,157.4,157.4,155.2,164.5z"
       id="path5"
       style="fill:#9575cd;fill-opacity:1" /></g></svg>